<?xml version="1.0" encoding="UTF-8"?>
<svg width="850px" height="400px" viewBox="0 0 850 400" version="1.1" xmlns="http://www.w3.org/2000/svg" xmlns:xlink="http://www.w3.org/1999/xlink">
    <!-- Generator: Sketch 50.2 (55047) - http://www.bohemiancoding.com/sketch -->
    <title>logo</title>
    <desc>Created with Sketch.</desc>
    <defs></defs>
    <g id="logo" stroke="none" stroke-width="1" fill="none" fill-rule="evenodd">
        <g id="Group" transform="translate(275.000000, 172.000000)" fill="#424957">
            <path d="M299.662,21.433 C298.312,20.878 296.759,20.323 294.395,20.323 C290.344,20.323 288.115,22.612 288.115,28.299 L288.115,49.8 L285.617,49.8 C281.565,49.8 279,47.72 279,43.836 L279,26.634 C279,19.144 282.848,12 292.437,12 C298.042,12 300,15.26 300,18.104 L300,21.433 L299.662,21.433" id="Fill-1"></path>
            <path d="M45.586,20.298 C40.276,20.298 37.586,24.723 37.586,30.878 C37.586,38.277 40.276,42.703 46.414,42.703 C51.794,42.703 54.414,38.277 54.414,32.192 C54.414,24.723 51.655,20.298 45.586,20.298 Z M46.414,12 C57.586,12 64,20.99 64,30.878 C64,42.081 57.586,51 45.586,51 C34.414,51 28,42.081 28,32.192 C28,20.99 34.414,12 46.414,12 Z" id="Fill-2"></path>
            <path d="M8.749,50 C3.582,50 0,47.452 0,44.56 L0,40.221 L0.344,40.221 C1.86,41.117 4.615,41.737 7.44,41.737 C11.71,41.737 13.295,39.877 13.295,36.089 L13.295,2 L16.463,2 C20.665,2 22.8,4.204 22.8,8.404 L22.8,36.502 C22.8,44.216 18.461,50 8.749,50" id="Fill-3"></path>
            <path d="M86.518,19.761 C81.827,19.761 78.311,24.374 78.311,30.158 C78.311,38.696 81.965,42.206 87.482,42.206 C92.103,42.206 95.414,37.8 95.414,31.809 C95.414,22.79 92.172,19.761 86.518,19.761 Z M86.518,50.4 C77,50.4 69,42.62 69,31.466 L69,0 L72.172,0 C75.758,0 78.241,2.066 78.241,6.403 L78.241,17.213 C80.103,14.528 83.276,11.567 88.31,11.567 C97.759,11.567 105,19.278 105,30.226 C105,41.38 97.828,50.4 86.518,50.4 Z" id="Fill-4"></path>
            <path d="M133.849,10.719 C131.092,15.632 128.129,23.174 126.544,29.748 L141.154,29.748 C139.569,23.105 136.33,15.147 133.849,10.719 Z M150.941,49.4 C147.012,49.4 144.945,47.116 144.6,44.832 C144.187,41.719 143.773,39.297 143.29,37.29 L124.476,37.29 C123.511,41.304 122.684,45.387 121.994,49.4 L118.342,49.4 C115.241,49.4 114,47.739 114,44.832 C114,37.982 122.822,10.096 130.058,2 L133.918,2 C137.708,2 140.258,4.076 141.568,6.359 C145.84,14.04 152.939,34.453 154.8,49.4 L150.941,49.4 Z" id="Fill-5"></path>
            <path d="M175.936,19.347 C171.217,19.347 168.162,23.892 168.162,29.883 C168.162,37.594 172.188,42.62 177.533,42.62 C182.738,42.62 185.029,38.764 185.029,32.017 C185.029,22.722 180.934,19.347 175.936,19.347 Z M176.422,50.4 C166.565,50.4 159,41.862 159,31.673 C159,19.485 164.969,11.567 175.867,11.567 C179.615,11.567 183.71,14.184 185.168,17.42 L185.168,0 L188.014,0 C192.457,0 194.4,2.548 194.4,6.266 L194.4,32.429 C194.4,43.24 189.263,50.4 176.422,50.4 Z" id="Fill-6"></path>
            <path d="M216.936,19.347 C212.217,19.347 209.162,23.892 209.162,29.883 C209.162,37.594 213.188,42.62 218.533,42.62 C223.738,42.62 226.029,38.764 226.029,32.017 C226.029,22.722 221.934,19.347 216.936,19.347 Z M217.422,50.4 C207.565,50.4 200,41.862 200,31.673 C200,19.485 205.969,11.567 216.867,11.567 C220.615,11.567 224.71,14.184 226.168,17.42 L226.168,0 L229.014,0 C233.456,0 235.4,2.548 235.4,6.266 L235.4,32.429 C235.4,43.24 230.263,50.4 217.422,50.4 Z" id="Fill-7"></path>
            <path d="M258.325,19.744 C253.856,19.744 250.763,23.409 250.557,27.696 L250.487,28.941 L254.613,28.941 C263.344,28.941 265.338,27.973 265.338,25.345 C265.338,21.612 262.588,19.744 258.325,19.744 Z M256.607,35.51 L250.557,35.51 C251.245,40.213 255.507,43.186 260.938,43.186 C264.788,43.186 269.325,42.425 272.281,39.659 L272.626,39.659 L272.626,42.564 C272.626,47.335 269.394,51 259.219,51 C250.007,51 241,43.671 241,32.261 C241,19.813 248.563,12 259.151,12 C266.85,12 274,17.531 274,26.452 C274,33.297 268.844,35.51 256.607,35.51 Z" id="Fill-8"></path>
        </g>
        <rect id="Rectangle" stroke="#DFE1E6" x="0.5" y="0.5" width="849" height="399" rx="3"></rect>
    </g>
</svg>
